<mxfile host="app.diagrams.net" modified="2023-10-31T06:55:59.576Z" agent="Mozilla/5.0 (Windows NT 10.0; Win64; x64) AppleWebKit/537.36 (KHTML, like Gecko) Chrome/118.0.0.0 Safari/537.36" etag="JwmEEGB9znIESMINUeQv" version="21.8.0" type="device">
  <diagram name="Page-1" id="WEV_u_zgqFxI67gI5hS8">
    <mxGraphModel dx="890" dy="669" grid="1" gridSize="10" guides="1" tooltips="1" connect="1" arrows="1" fold="1" page="1" pageScale="1" pageWidth="850" pageHeight="1100" math="0" shadow="0">
      <root>
        <mxCell id="0" />
        <mxCell id="1" parent="0" />
        <mxCell id="3SbiW-nQ5kWzxvj-RMLt-1" value="" style="shape=image;verticalLabelPosition=bottom;labelBackgroundColor=default;verticalAlign=top;aspect=fixed;imageAspect=0;image=data:image/png,iVBORw0KGgoAAAANSUhEUgAAAcwAAAKDCAYAAACXPTqiAAAAA3NCSVQICAjb4U/gAAAAAXNSR0IArs4c6QAAAARnQU1BAACxjwv8YQUAAAAJcEhZcwAADsQAAA7EAZUrDhsAAABfelRYdFJhdyBwcm9maWxlIHR5cGUgQVBQMQAACJnjSk/NSy3KTFYoKMpPy8xJ5VIAA2MTLhNLE0ujRAMDAwsDCDA0MDA2BJJGQLY5VCjRAAWYmJulAaG5WbKZKYjPBQBPuhVoGy3YjAAAaBhJREFUeF7t3Qd8FNXaBvAnCSEVQu8IShEQVFCpioJYAHvhE1Swgh0bXgt2rKDClauCFUVUbKDSBEEFlKooiJTQS+gljfR88549A5Nls9kku5md3ef/u3N358y24M4+c86cOSei0AAiIiLyKlLfEhERkResYRL5gexGycnJWLVqFbZv346dO3ciJSUFW7ZsQX5+PiIiIhAZGaluo6Oj0aRJEzRs2BCNGjVCgwYN0KtXL1VORMGLgUlUSnl5efj333/xxx9/4M8//1TLihUrkJqaqh9RNs2aNcOZZ56pljvuuAOJiYl6CxEFAwYmkQ8kFL/77jvMnTsXCxYsQEFBgd5yTGxsLC688ELUr19fLVJzbNq0KSpVqqRqoPIcuc3JycGmTZuwY8cOVRvds2cP5syZU+Q1o6KicN5556F///646qqrUL16db2FiOzCwCTyQELtl19+wdSpU/H9999j69ateouLBGH79u3V0qFDB3UrAVlWEpZSS50/f74KzxkzZqimXBETE4OLL74Y1113HS699FIkJCSociKqWAxMIov9+/fjlVdewfjx43H48GFdCtSsWRNXXnmlqu1dcMEFqtYYSAcOHMDXX3+Nzz77TAW3WfuUz/Hkk0/izjvvROXKlVUZEVUMBiaRYffu3Rg5ciTeeecdZGRkqLI2bdrgsssuU0unTp1Upx07SJPtp59+io8//ljVQkXz5s3x8ssvqwCXjkREFHgMTApr0uz5zDPPqFplbm6uKuvTp48qO+uss9R6MJkyZQr+85//YN26dWq9W7dueO2111SgE1FgMTApbO3duxfXXHMNfv31V1VL69u3L5566qmgDEorCfZx48bh2Wefxb59+1TZzTffrMp4aQpR4DAwKSytXLkSl19+ueqtWqtWLfzwww+Oq6XJOdYXX3wR//3vf5GVlYXOnTvj22+/Rb169fQjiMifGJgUdhYtWoTu3burmppc8yghIwMIOJVcD3rFFVdg27ZtaNy4sWq2lZ67RORfHBqPworUygYMGKDC8pJLLlHXVDo5LIWE45IlS9ClSxcVmueccw6+/PJLvZWI/IWBSWHlrrvuUs2wct2kXLYh1ziGAmmGnTdvHgYOHIjMzEx1zeaPP/6otxKRP7BJlsKGXJpxww03ID4+HsuXL0erVq30ltBy7733YuzYsahTp466DEVGHSKi8mNgUliQy0fk2sXNmzeray2HDBmit4Qe+VtlcAWpcfbs2VPVNGWoPSIqHzbJUliYPn26CssTTzwRt912my4NTRKOEydOVDVMGfv21Vdf1VuIqDxYw6SwIGOxzpo1Sw1Q8Mgjj+jS0CaXysjYs3J+UzoDBXI4PxnKTwaTl+tCDx06hLS0tKNLenq66mwlPzVyvav7IgFfu3ZtNeyfXOIjt+Z9CX2iYMHApJAnnXxk6izp4CPBIT/E4UB2bfm75e+X8WjlUprSkubdXbt2qTA0Z1fxdF86GgWCBOepp56Ktm3bol27dmqR+5z6jOzAwKSQJ0PHPfzww+pyEun4E07k0plp06apa03lWk1P5CdAJrxeu3ZtkWXNmjWqGdsXUkuUcJbabNWqVVGlSpUiS1JSkqpNynu5LxLKMpavDHxvLlJTlaCW2qk7Gc2oR48eajB8+Zs4UANVFAYmhTwZ8k7OYX700UcYNGiQLg19Uptu3bq1Gkz+t99+Q8eOHbF69WrVQ1i2mcG4atUqNVKQJxJyUstr2LChWuSaVeuteb9atWr6Gf4jP01btmxRn09GZpJF7svfICErZED8rl27qt7Pt9xyC4cGpIBiYFJIy8vLQ40aNdS5NPnxPeGEE/SW0Ca1Sjk4kNqakNrfxo0bVQh5IoEnl9mcfPLJRRZ5nkyMHUxkDGCZzPubb77BTz/9hOzsbFUu50FlLGDpAc3gpEBgYFJI+/3331UNRC4pWb9+vS4NfdIEmpqaqtdcpLZ40kknqWCUf49TTjnlaDDWrVtXP8pZpGYswfm///1P1aJFy5Yt1dRn0mRL5E8MTApp0iv20Ucfxe23364mhQ4XM2fOxNSpU1UHJ+koIyEp83sGeuJru8jPmASn/LdOTk5WZXIt6vfffx8yozmR/RiYFNJkiLgvvvgC7777bshff0muqc/efvttPP300+ryll69eqkDBxndiai8OHABhbS//vpL3Z522mnqlkKbnLu877771Byncg3nnDlzVKcvT71tiUqLNUwKWXJtoFziIOfu5HxeXFyc3kLhQHrTSg0zJSUFZ599Nn7++WcOEUjlwhomhQw59pPesHJNn1w/KCPdyOUH0gmEYRl+5Jzt/Pnz0aBBAzWN2wsvvKC3EJUNa5jkKFJbkN6u0rHDvJVlw4YNKiw96d+/PyZNmqTXKNzIeLpS05TmWrnutGnTpnoLUekwMCloyVdTmtXkfJS5yIg03sg1g9LBw7rIJQYXXXSRfgSFo+uvv14dNN1zzz148803dSlR6TAwKajIqDQffvihqhXMnj37uM4acn2hNLHKdYSytGjR4uhtuIwRS6X3559/okOHDmqABhn7lr1mqSwYmGQ76ZwjY51+/PHHauQWc9gzIeOEyqDh5iIX28twaESlddZZZ2HZsmX4+uuvcdVVV+lSIt8xMMkWBQUFagYNCUn5ATPPP0ovxptvvhmdOnVSASm1SSJ/kGszn3vuOXXZyZgxY3Qpke8YmFThpKl12LBhR6+RFDIw+I033qgGGmDTKgWCtF5I55/TTz9dNdESlRYDkyqMzDYhkzfLsG2ifv36uOmmm9SwdSeeeKIqIwoUOT9evXp11eQvg9IHYoYVCm08GUQBJz1bZVi69u3bq7CUwQTkmji5FOTFF19kWFKFSEhIwBlnnKFOB5gDtROVBgOTAkqmYZLzkO+//74aceeuu+5S108+/vjjHEyAKpw0x4pwmrmG/IeBSQEhg2Dff//9uPzyy1VT2IUXXqh+pGQaJhnjk8gOMtm12L59u7olKg0GJvmdTNp8zTXXqJ6IMrrKf//7X8yaNYsjrJDtGjZsqG7lWkyi0mJgkl/J+SHpyCNNsTLqjgxAcO+99+qtRPZiYFJ5MDDJr6Qzz6efforExEQVljJLBFGwMCfQlgM7otJiYJLfrFq1CiNGjFCde6SG2aVLF72FKDiYQy3KAR1RaTEwyW/uuOMO5OTkqEtIevTooUuJggcDk8qDgUl+IYMSLFy4UF0qMnLkSF1KFFzM2W5q1KihbolKg4FJfiEzjAgZ3k5mFCEKRosWLVK3Z555prolKg0GJvmFjNMpBgwYoG6JgpE5wk/Xrl3VLVFpMDDJL7Zu3apuTz75ZHUb6mRQhj59+ug11w+xdHaSxZ352PHjxx99jKdFHuOpXOb6NFnfx7rdOtSbL5/F0+vIIq9V0ueU13CixYsXqyZZGU+2TZs2upTIdwxMKjcZyefQoUOoXLky6tatq0vDk0xmXVygDB48GDLXgbkIOe9rrg8fPlyVWR8ji6dh3Kzb+/bti0GDBuktx3j7LCbr68gi71XS5xw9erQqcxpzSq9bbrlFBT9RaTEwqdwkKGUeSxkOLzs7W5eGpwkTJqgfZmuNL9D69euH5ORkvXaMHZ8lWG3cuBGTJ09W39N77rlHlxKVDgOTyk2Gv2vcuLGqfWzatEmXhic5N9a7d2+PNb5AkWtfpTbpzo7PEoxkOi/5N5BbmW+VQzRSWTEwyS+aNWumbmXwgnA3ffp0VeMr67k+93OG1nOlJut2aUYtbvaNkj6L9XVk8fReTidTyC1YsAD16tVzbHMyBQcGJvmFzGQvpkyZom7D3bhx48rcHGqeKzQXCT135jY5t1hSOHv7LNb3kcXTezmZBORTTz2l7r/77ruoVauWuk9UFgxM8ourr75a3cqQeOF+HlNIxxlpDpXm0kCSZlczEItTUZ8lmEjz69ChQ/HAAw+omrNMK3fJJZforURlw8Akv5DLEdq3b6+GHpPOJuRqDp0xYwamTZumSwJDArGkHrEV9VmCgYw6JZeNyLRyYuzYsWricqLyYmCS3zz88MPq9uWXX1ZzYpKrOdRTD1Zv3M8rylKSYcOGea1lCk+fpSzvFYykOXnmzJm46KKLcNppp2HdunVqKi8ZUINhSf4SYXzRXBdaEZWTNIO1bt1adUCRjhaPPfaY3kJUMvkpKk1gy+PXrl2rOvQ8++yz2L59uyqXy5zkAEKua5U5WYn8hYFJfiVH9BdccAEiIyMxZ84cnHfeeXoLkXcdOnRAamqqak6VRZr5pfe1XN975MgRtcggGXJAtmTJEvz++++qzFS/fn3cfffdatacmjVr6lIi/2Fgkt89+uijeOWVV1Q3/j/++EP9kBF5s2/fPvU9KW1Tfnx8vOqhLROVSwcfc4JookBgYJLfyY+e/Ij98ssv6N69u6p18oeMSpKSkqKuA12xYoUuAVq1aqWCVKaNk+ZVuZVLQ+R71bFjRzRq1Eg/kijwGJgUELt27VK9ZuX24osvxqRJk9Sg10TeFBQUqM5L0kohk5HXqVNH9Xb9v//7P/0IIvswMClgZHaInj17IjMzU52L+vrrr1UPRqKSyHnK2267Db/++qtav/zyy9VBlzTBEtmFl5VQwHTq1EkNlXf66adjw4YN6NKlCz7//HO9lah40uHn559/VgMOJCYmYurUqWrS59WrV+tHEFU8BiYF1IknnqiGZLvxxhtVj8b+/fur80+zZs3SjyDyTC4xkWsopUesXK7077//qoMwHnSRXRiYFHDSUePjjz9W18rJNXLz589X5zXlMoJvv/1WnbcqCzmb8P3336vh4bp164YvvvhCb6FQImEpoSkzjchIUnLQJd8lnk2iisZzmFShDh8+jLfeegtvvPEG9u7dq8pq1KiBHj16qPOd559/Pk4++WRVXhwZxWXixIn44IMPsGPHDl0KNcqLjPZCoevNN99UI0pJhyCpfUqTLVFFYWCSLaR51hw0fPPmzbrUpVq1aupSAglSuQBdbnfu3KkeJ+dCZUQhU5UqVVQPyvfeew/t2rXD33//rbdQqJLLlS688EIVmo8//jheeOEFvYUosBiYZDvpESnXasoyb9487N+/X2/xTK69k/OgN998s6qVyrmttm3bqgHIi5sXkkKLNOX369dPXfMrg2Q88sgjegtR4DAwKejs2bNHXb954MABFZ6yyKhBMlO+XMgu50GtfvzxR9Uce+6556qelRQe5Ly4HDTJT9j48ePVZShEgcTAJMf78MMPccstt2DAgAH49NNPdSmFA5m6695771UjSS1btozX+VJAsZcsOZ6c3xQynROFl3vuuQd33nmnapqV27L2uCbyBQOTHE86fwhO5RSeZCo5abKX2UtkNCCiQGFgkuOZcyjy7EJ4kl7VTz/9tLr//vvvq1uiQGBgkuPJ3JuCzXHhSwY1kBYGGXt269atupTIvxiY5HisYZLUMuXaTDlokkuTiAKBgUmOZ567TEtLU7cUnuSyIyGTURMFAgOTHE/GGhUrV65UtxSeZFQowcCkQGFgkuPJ9GHir7/+YrNsGNuyZYu6NYOTyN8YmOR4MlSeTCN26NAhzJkzR5dSuJFZcMQ555yjbon8jYFJIeH6669XtzKLCXkmHWIGDRqEa6+9Vs0YI5Mxh0qNXEb5kXGEExIS1LRxRIHAofEoJMiUXzItmMy9KT+cHPXneG+//baaEsuqQYMG6mBDhhaUcXqdSA4EZE7UxYsX48EHH8Rrr72mtxD5FwOTQobUnL766itcc801+PLLL3UpmVJSUtCsWTM1tZpMuP3HH3+o+yapmUkNVCZorl27ti4NfjJN3B133KFG+1m7di2qVq2qtxD5F5tkKWRIzSI+Pl6FpkwVRkXJHKMSLELmGM3IyFDn/WSWj6SkJBWgQ4cOVbXzK664At98883RYQeDlUzzJYOvi1dffZVhSQHFGiaFFBlX9IknnlATS8tUXzyfVZRMmybBKdeuZmZmHh30QWqaU6ZMUVNmzZ49++gk3dLjVEbRGThwIDp27KjKgoV8XpkTMzc3Fw899BBGjRqltxAFBgOTQoqcz5Jpvr744gvVrCjntaQHLR0j53mzsrLUvKOeml5l9heZJk3Cc9WqVbrUdb2rBOcNN9ygeibbRf4bP/XUU3jppZfU/QceeACvv/663koUOAxMCjnZ2dno06cP5s6dizp16qiesxdccIHeGt6Sk5PRokULVK9eXV3gb47DW5zly5er4Pzss8+wd+9eVSbPkdqmTNoti9yPiopS2wLtn3/+UU3IixYtUusypZf0+CWqEBKYRKHGCM3Cnj17ysFgofEDX/jMM88U5ufn663h66abblL/Jtdee60u8U1OTk7hlClTCq+66qrCypUrq9cwFyN8C6+55prCd999t3Dr1q36Gf5lhHXhf/7zn0IjmNV7NmjQoPDbb7/VW4kqBmuYFLLkPJwRlOq8pjTdnXXWWao2cuaZZ+pHhBdpZr3xxhthBJ4aFUkuwymL1NRUNcD5rFmz1LJx40a9xaVNmzbo3bs3Tj31VLW0bdsWlSpV0lt9J7VheZ8JEybgt99+U9eMyjlXuQRGzlfKgOtEFYmBSSFPpny6+uqrj44xevHFF+OFF14Imw5BsovLgcPzzz+v7ksAyblIf5HrXs3wlI5W6enpeouLhJyEaOPGjXHCCSegbt26apHzp9IL11yk49HmzZvVedMlS5YUeR3ppCSXC919993o3LmzLiWqWAxMCguHDx9Wl52MHj366KwmUguSGteVV155dMaTUCOj+UhPUjn3J+TfQC7uDxSp1csBinS2Wrp0Kf7++29s2LChTCMKybnS7t27q3CXv0FG8SGyEwOTwop0XJEm2nfeeUf1FBVyCYpcdygj3vTq1avCOrAEijQ/z5w5E2PGjFGXiMguLp2f3n33XVx22WX6URVHQlSu95R/+927dx9d9u/fr5qHzUV678rgA+3atVPNuDJdl3nZC1EwYGBSWJJLKqTnp5zXk5qQSc6LSZOfjIQji/QAdUrNRmrO0tz65ptvqqECRXR0tLrs4umnn1aDOhBR2TEwKexJ55JPPvlEhac0H1pJs+AZZ5yhwvOkk05Si1zXKZdmSBjZSWpo0hlGloULF6oByM2h7uR8oYwbe/vtt3O6KyI/YWASWcicihI+5iIdUMxRb6ykqVBGzDED1AxTc10GNfdXc+KBAwdUjViWrVu3qp6jEpIybqr77iu1Y6lRXnXVVWXqmUpExWNgEnkhvTel56d0XpFmTrmEQhYJVjlXWBwJSxkZRzoTxcTEqFtzsa6b9+X8nXRMMoPRXORcX3HvI8+TS2Rkpg5zcdKg6UROw8AkKgMZv3Tbtm1HA1SWTZs2Hb0vtUJ/kU5JEoTScUcGRu/SpYsKRwlLu5uFicIJA5MoAKQZVy7pkHOK0htXhuuTW3ORdRmy75dfflGXt8g1oRKMEorWRZp2GYpEwYGBSWST++67T/VolYHD5bwjEQU3zodJZBPzWJXXGhI5AwOTyCYMTCJnYWAS2YSBSeQsDEwimzAwiZyFgUlkE/P6ypImcSai4MA9lcgmrGESOQsDk8gmDEwiZ2FgEtmEgUnkLAxMIpswMImchYFJZBMGJpGzMDCJbMLAJHIWBiaRTRiYRM7CwCSyCa/DJHIW7qlENmENk8hZGJhENmFgEjkLA5PIJgxMImdhYBLZhIFJ5CwMTCKbMDCJnIWBSWQTBiaRszAwiWzCwCRyFgYmkU14HSaRs3BPJbIJa5hEzsLAJLIJA5PIWRiYRDZhYBI5CwOTyCYMTCJnYWAS2YSBSeQsDEwimzAwiZyFgUlkEwYmkbMwMIlswuswiZyFeyqRTVjDJHIWBiaRTRiYRM7CwCSyCQOTyFkYmEQ2YWASOQsDk8gmDEwiZ2FgEtmEgUnkLAxMIpswMImchYFJZBNeh0nkLNxTiWzCGiaRszAwiWzCwCRyFgYmkU0YmETOwsAksgkDk8hZGJhENmFgEjkLA5PIJgxMImdhYBLZhIFJ5CwMTCKb8DpMImfhnkpkE9YwiZyFgUlkEwYmkbMwMIlswsAkchYGJpFNGJhEzsLAJLIJA5PIWRiYRDZhYBI5CwOTyCYMTCJnYWAS2YTXYRI5C/dUIpuwhknkLAxMIpswMImchYFJZBMGJpGzMDCJbMLAJHIWBiaRTRiYRM7CwCSyCQOTyFkYmEQ2YWASOQsDk8gmvA6TyFm4pxLZhDVMImdhYBLZhIFJ5CwMTCKbMDCJnIWBSWQTBiaRszAwiWzCwCRyFgYmkU0YmETOwsAksgkDk8hZGJhENuF1mETOwj2VyCasYRI5CwOTyCYMTCJnYWAS2YSBSeQsDEwimzAwiZyFgUlkEwYmkbMwMIlswsAkchYGJpFNGJhEzsLAJLIJr8MkchbuqUQ2YQ2TyFkYmEQ2YWASOQsDk8gmDEwiZ2FgEtmEgUnkLAxMIpswMImchYFJZBMGJpGzMDCJbMLAJHIWBiaRTXgdJpGzcE8lsglrmETOwsAksgkDk8hZGJhENmFgEjkLA5PIJgxMImdhYBLZhIFJ5CwMTCKbMDCJnIWBSWQTBiaRszAwiWzC6zCJnIV7KpFNWMMkchYGJpFNGJhEzsLAJLIJA5PIWRiYRDZhYBI5CwOTyAZmWAoGJpEzMDCJbMDAJHIeBiaRDRiYRM7DwCSyyfnnn48ePXowMIkcIsI40j12qEtEREQesYZJRI4yfvz4Cq+V2/GeFHwYmEQU1O6//3706dNHr1UMO96Tgh8Dk4gq3G+//aZqbLLIfSsJKimX0BKjR4/G9OnT1f1AMD+LVXnf0/r3mUuLFi2O+1vLw9PnpsBiYBKVU1YBkJoH7M8FdmYDazOAP1OBhQeBn/cDs/cB0/cA0/Ty/W7gB31fymftBeYaj5PHLz0M/JMGbM8CDhivl2a8rrx+qGrevDkmT56s11whMGPGDFUeCqSLiLn07dsXgwYN0lvIiRiYRMXINoJqfw6wJh2YZwTaN7uAT3YAb20BXtkAPL0OeHA1MPhvYMCfQN8lwPmLgIsWA72N+5cuNZZlrtvLjFtZjt63lF2hF9l2uX7OhcZr9DJe65o/gNuN17/vH+DxtcBLyUbtZxPw3jbgK+PzzDDC9g8jZPcZn9OJvfeGDRuGMWPG6DWo8Ozdu7eqjZlKah6V7VLTkvOMZq3LLLPWwMzzkLJYa3vdunVTt+Y2eW5p3tNX/fr1Q3Ky8R/QorjP5Kn26F7m6XMLeZy8lllu/TvM1/D070MlY2BS2JNa3OYjwPwDwBcprkB60fhdu9cIqT5GgPWS8DKWq5cDA1cAd68CHl0DPLceeMN4rISo1BYXH3KF6xbjtXYbNc2DRg0x3XhtCd58I80KjMUMNbmVdSmXGqR8Bnl8ivG8TZnAv8brSC31RyMQJxqv/+ZmV1hKaD5ghLSE6LXG55GQvdK4vcgI6EHGZ3vM+FyjNgIfbnfVYpcbYZqZ73rPYDR48GB1awaPhOcVV1yh7vtCwkCes3DhwqOvJdatW3e0ZickKIYMGYJx48Ydre2ZgSPPFebjpTnWm+LesyQjRowoUnP29pl8UdznlteQAxGzXLiHv/u/D/mGgUlhRYJJQk0C7n2jlvayUVMcstL4kTEO7M/9HbjOqNFJID1hBNO7W4ElRgjuyHKFWzCSwN1qBLTUMiW45e8Z9i9wy1+uQP0/4++RQJWgfc0IUjkgkBDNC6K/Z+jQoRg5cqQKTQkUX0NIalHr169XwdG1a1dd6jJ8+HB9z8WsuZqvbYZLaWqIwtt7emLW4mSR58li8tdnspKao/U1hfxbSDO3lfu/D/mGgUkh7ZBRa5NzghIU0pR6p1E7PM8IxkuMmtltRi1NamSf7QR2GqEYasfaUnPdYNRWpZYqtdOHjSCVAwKzWfg/xt8uBwVz9rlqwnYxmyqltiW1LF/Jc6Qm5Sm4fAmzspwn9faenpi1OAlYea7ZbFocf5y7lXC0BrWnWquvn5+KYmBSSJH+MVIjlBqkNGMONmqP7ee7gkKaUj81amG7c4wHXRK+526k2XeG8e/zqlEblX+f6/8ErjL+fZ5aB3xo1Lr/Sq3Ygwf58ZZakSipOdRKmjIlZMtaI3M/n+iLsr6n/I3yXOv5Wk/K8pncyb+lGdTWhcqPgUmOl2v8Fsh5v4+3Ay+sBy5Y7KpFSUeZL42apWxXJCT1on5EpDJjlgWrgnxg6TTgt68DtuxZtxKzjVro88a/3W1GgN64AnjCqH1KxyJpvpZm30CTSzhK+6MuzY5mgJVUc5NarNS8zKAzHy+vYda25JxiSUrznu7kuVKDNJ/ny2eyvod7D1tPn1sOOKyvKWS7tw5M5DsGJjmWdKyZafzQjzB+6HsuMn5Q/nLVkqTDzNGfXveQdDvaPlpmhmewiYxCQue+uLjHuXiqR2u81/MEvHdGHN5rkYH3Tjrkn6XqSnSNPqDeTs7VrkwDXpLa59+upls5J/qRcTAiNdNgI+EizZ1Sc/MWYGYNT4JOmimnTZt2tNOMkPOo0nQp20oKQl/f0xNrr+CSPpNZIzWbVj01V3v63PIack7YfJ4ELc9Z+gfHkiVHkS+rnJOUHqRf7nT1BD3uC2wJvrJ+veWHBj8E365RPwboWM1YkgrRKS4DZ9aqjKTYynpr2W3ZtQenraiNw/meDxqk9JwaRs29LnBmEnBeTVc5UThhYJIjyLnJPw+7eoNKT9CNma7y4qgaox+o4BRBGJ4iYu0itF41FWfHpmLM668hNjZWbym9jxevxaB9J+u14jWJM2pZJwBtqxg1UCNAicIFA5OCnlzXKAMHDF/r6tDjK3+Fpiloap1Z6cDPk4Dp76BDtQjceeed6N+/PxISEvQDyu7a2TvxVU4DveZdQyObBxgPvbIe0KW6LiQKYQxMClpywf1P+1yXP8h5yfIIqvCUJuOyPHfrPyok4xZ9iX59L1ZB2alTJ73Rd/uO5KFmbNSx2rPF/kOH0W5xPFLyonVJyS6u7QpNCc/ESrqQKAQxMCkobcgApuwGHjHC0p+DBgQkOEVxAejWkci6u0VM03e8ycsBFn4NzHgHLbJTcMcdd+Cmm25CjRo19AN8JyMZybWoMsRfVSPYLqkDXJ6UjgvqxyAh5lhAzvxrPfpsb1GqS0uiI43aqRGa1zcE+hivSxSKGJgUVOTLuOigq+fr9L2uskDwd3AKTzW24navEsNyz2YjJMej0twJuOzcziooe/Xq5fE9vJEBCSbuNILSeDnp/epJXBTQq5YRntWPqBCtWyUOd/+8DW9lNNaP8J00zfY3apr3NDX+Rl1GFCoYmBQ0pGOPzNwhAwzIdZUVJRDhWRKPgSnXXC6faRwpvI2GKX/jtltvwe23346GDY1qWymtTgfeNmqTcm2qzKTiq0gj5bpUAy6q7RpgPqMM49C2SAAGNgIeb+Z6PaJQwcCkoCHTYN38V+k69vhTRQXncWF5aLfxx3+AiFnv4vy2zdS5ycsuuwyVKpXuhKCMDztll6vZVaYVs3PHltC8ph7wYitdQBQCGJgUFNZlALcZYTn/oC6wWaDCs0hYrvpV1SZrrPkZg67vr5pdW7ZsqTf6LsU4wBi/zTUurF0HG550r2GEZn3g3qa6gMjhGJhku5wC4PVNroHQbeelk44/HA1M43VjNi3HW6cU4vqzT0NM5dIPPvCLdOLZDHxr1CqPDv8XZO44AXjgJKBl+a94IbIdA5Ns95tRq+y9FEjN1QUVKcABaeXpvKX0Vr2sTiGurXoIF51QBTHR3pth0/IK8cmOCNXsKiMeBbuT4l21zFfYNEshgIFJthtr1JJksuYKZ4RlRX39PXbyceMtPCUcJSRlzkuZ09NJBjYE/teW12iS8zEwyVYyE8aja4BRG3UBKfFRwFX1gB41XT1dpfnVqfoZNcy7mgLnlv7SUaKgwtlKyFZHClznMKkoGeVoolGbvPVvZ4elqBcDbD2iV8pJpqoq7bWoFaGkzyUziRQ3xZZMxRWMfxMdj4FJtpKficRIh7UxWmUcAr56BRjWDTHfvOwacICKqFHZVWMmF2/hScGNgUm2ki9glFyw7zRbVgFjhyDxrpa4O2Eb/v3mfex54y58Er0Al3/3IGKnvgbsKkU7s3Q+qqilAsm7yeAFpyS61q3MWpn70qJFiyLbS8v6WqWdr7IiyCTPMmE2OQ8Dk2yXm3UEtco/pWPgFRYAi78DnuiFZm9cidcvbIXtG9Zj7NixaNWqFapWrYobbrgBU8a9jt2jbsfEuEW4/IeHEfvDGGDvVv0iHhghJl0JKmqpSKdUAQ5m5+NkD4Fpcv9869ev11vKxnyd3r176xIi/2Bgku227diJPjWCuFk24zAwdTQihpyMXr+/ie+eH4p1a9figQceQFJSkn5QURKe1w8YgClvj8K+1wZj4inZOLeGh5O1FVTjk1665lJR5C+TSafz0lPLNK5st27d1K2n2qJ53k8WqZFKbbSszJqsvL71NU2earrF1X6Lew2rkppkzdeQv1HI/fL8feQ/DEyyXYFRc1u5dh06eM4e++xYB7xzLxLuPhl3RK3FqtlTMXv2bFx66aWIjPR919lSEIcl8S3wV5rn50htyJ+s4VjRIWnVtw7wzcZUVMvP0CWls3DhQnVr1hilKdM0ZcqUo+V9+/bFoEGD9JayW7du3dHXlLArLvC8Ke9rSJCOGTNG/e2DBw/WpRQsGJgUFP5c+Q+a5u1Hc7tHhDF+6PDHLOCZvjjxlT4YdV5TbFv3L95++220adNGP6hk0vP3853Aeb8DbX8B/rsZOOQ+MINuivU3NaxfBZ+rdNexGrAvKx+7Vyw0apfe/0azRmYuvnSIGT58uL4H9OvXD8nJyXqt7KyvKecY5TVLW7Mrz2tIuEpztIRl165ddanrgMG6TvZhYFLQ+ObHeegen47WXs53eZWyAUnvDAHmTQTS9utCH2WlA9PeQsRdp6Dnz6/i2ydux/p1a/HQQw+hevXq+kEl23wEeHwNcMJcoP+frktCPMZFgANN1XJsCs5ORlgmRhZg0XzjSOFIyTN/mzUyc/GlQ0x5AkQC2VM4+yOUyvMaEq7Dhg1jOAYxBiYFD+PH8oMpM9Eu6jAur6vLSqN+M/TochZW33oGXkv5GL2+ug8xX71o/BItV6/t0e5NwPsPI/7Olrg9bwX+mvYFfvrpJ1xxxRWIivLtWggZfOGHPUDfpUCzecBLG4yXzdYbvZBwKEl5m1NVCBnBWRHhKa8uw+Cl5+Rh7lzjiKG0By0VRALZUzj74zxheV5j3LhxGDJkyNFzlxR8GJgUXIwfscnTfsSKVatxa+NCNblxaUxp+X9Ys2kLHnzgAcz+8L/Y9+Z9mHriDtwx71E0+exhYMGXrmsn/zaSbcSVaDKiF17pXAfb1qxSP1Tt2rXTr1SyXUYovpDsCslLjbCcboRmQckZWGJTrPu5R+v98jDDMxDBmVQJuP0E4Odtqfjn1x+N1Cz/tDNmTauiOryMGDFC33PVQps3b64+g/k5rJ2OijtnWtxr+ELOWZqhaX0vqQlX1L8BecfApKC0Ze0/mDjtJ1xZI0v1tPT5Jz6uCu5dHYnU1FS1mpiYqOaWfPu1V7B54ij8c+MpGLX9A1y1bCy+HnYjNqxfh0ceeQQ1avg2bpvE3Dyj4tTvD+CEn4Dha43PWs5RbKwB6S0YS9ruK3/WOqOMp/dvAFxetxDvL1yNfYtnA1ml6+RjNo9aF9PQoUNVb1kps4aIN3IuUB4/Y8YM1YFG7vtyXlSmVjPfX84lWi9vkSAzX0sW6WjkibfX8IWEppzDlPfy9e+lisOxZMlWR/KBW39Yhc8W/atL3EWgbrPW6HtmK/yRFoUVrhws0V1r3sX/Hrpdr5XfwVxgwnbjh3MrsKbk03IVQgWen8gPPH7w/adABiM4uzpQJwaYvXEfDv+zpNigfOrSzni2a2O9Fnyk9iahzJ9CKglrmBTkCrF7w2p88NV3SMrYg2EnwafLT96p2xe/L1mq18pu+eZduGX2ZjScU4AHVgdPWApfaqW+KtJc66XWWcnYdF5N1wwk2w+m46s583F4+bxS1yqJnIiBSc6Qn4dffvkFIz+dgogDO3Bro0L0quX6AfekoHoDDP5xA3JycnRJ2TStEo2LDy7BDdMfQtOP7gFmvevqKBRk/BqcHmpaMcYvxcW1gQFGUG7YuQcfzVqAjfNnGFXvXfoRRKGPTbJkq5KbZIsREYHqJ7bCuW1ORGRsAnZkAcsOu3qsHlVYgBE7PsETQ8p/UbtJzknNmTMHs5etxLzUWBxq2Q04tSeQ6PulJxWhPM21ZvBKSHYx/iyZpzMnvwAL/tmA9M3Gf6dcH7oAWwR7kyyRrxiYZKsyB6ZVXCKatWiFTi0aIym2ElalAX+mAul5xo9+xgEs6hmHhgnR+sH+I+G8dE8m5mxNw+yCBvg3o/imTDv5Ep5mSNYw/pnOrAbUjzH+voJC/LB2Nw7tMGrU+3YYW8v2U8HApFDBwCRb+SUwrRKqoVHTk9DmhLqoUSURWcbrr81wLT5d8hHC3INTQlKatNtWAU6Md9Uo92QXYuGGXcjevRU4sFM1hZcXA5NCBQOTbOX3wLSKjEJ03SZo3bQh2jesaaRDtHq/dUZ4rjRqoUWab8OE1CAlHGU0pQzj3wLG7r9692Ekb96G/NS9QKrMVu3ffxgGJoUKBibZKqCB6S46BhHV66Jlk8ZoVqcaqiTEI7fAdYnExkypXUGdCw2FHUIahyUUa1YGGsa6xraVsNycWYAtu/YiecceFKbuA9Jk7D4Ps6j4EQOTQgUDk2xVoYHpSWJ1RCQmoXmDuqhdNRGNalRBfmS0uiC/ciSwNwfYL0uu61rM4wZQt1F1IwAlBCUU5VY654g8Y4+W3Xr7oQwcSE3DxpR9KMxMdV36kXnY9aAKxMCkUMHAJFvZHpieRBnJE1cFiE1EUvUaqFk1ATWqxKN6fBxqxkejICIKUiczr8mS+3J+NMu4I0um8TfJudNs436uUS61WBVixuNkb5NbqQHKWAFyG238X7TxYnI+UYYCjDXuW2+F9b3M+wcys4wlF/vTM7D3UCoy09ONf1BZ0ow3N6rMQYKBSaGCgUm2CsrA9EVsgpFwRtUuOsa1REUjIS4WMTExiI+pjLjKlRBTORrRUVHGEolKkZGIiIzQQekaS1YFqJG0uWrJR25uPrLyjCUnF0eys43FuM3KNhI3y9X5Js+o6koQ5hnVXLnvEAxMChUMTLKVYwOTfObPwAzEMHYyZqtM/OzLtGJCBumXAdLL8hlK+14UXMzWHSIiIvKCgUlEtpDaojmzh3WR2Uas20tLaoDW1+OsH+QvDEwiCqiSWi7V+VzLUtopsawkLKdMmXL0tThVFvkTA5NsVyBdPylkHc4u22hBcq5SeKopWmuRUiM1J1iW+SSt5wdl8maZU1POG5ZGca/viXwueZw8x73WXNJzhTyupMdQcGBgku2klyiFrqy8sh0RSe1QmLXF0aNHq3VhrUXKZM6DBhU/wP60adPUxM6+kvCSTj0yabT5+mZ4u5OJqaUGK59VwloC2vxcsgwbNqzY55LzMDDJdvmsYoY0OR5K3l/8RKLWGpksEkIlGT58uL4H9OvXD8nJyXqtKPO1rGFbksmTJ6N3794qAIX5XKlBWkntUZqPJSwlKD2R12jevPlxz7WSYC3u+RRcGJhkK7mwX649pNCVbfz3Xbmr+BGGrDUyWXy55MKXgJGwnDFjxnHnRKW8NOEsJPTcSUhLDdL9s1hfXxZ53OrVq/VWcjIGJtkqzvgGbt5zUK9RKPpryy6klfE8ZllJaElQSgC7k0AuTTgLTzVYabKVpltr7VHOZ5rvay6ewpaciYFJtpIh4S4/nT8ooax1w1polBSn13xn1txK2yHGbCp1r1n6Spp4pWZqBqHZ2chsojXJuhmaxfXCldcorrnYJLVQdvpxBgYm2a5htTj1o0GhJzG2smqSPbNRdV1yPGvzpbmYpIerdJqRsuJCycoMKFmsr+dr06uQoDaDUJ4rnYbMDkjuJDStl66Y5zvN95XOSaxhhg4OjUe2W7EnA/dMW4mF67bpEgoVl5/RComF2Zh47Zm6hMi5WMMk251eJwF92zZBXOVoXUKhoG5Sgrp9rLvvl3QQBTMGJgWFO06tjTvP76Cascj55ODn0vYno0ONKJxSt6ouJXI2BiYFheoxlXD1SUm4vQdD0+kqV4pS/x337t2DJ3u00aVEzsdzmBRU5m05iG82pGL8vOXI4fWZjlMlLga3ntceW7fvxBfXdUSlSB78UOhgYFLQ2XQ4Cx+tOYR3f16BlENpupSC3cn1a6JLi8aoXpCJUX1ORSRbCijEMDApKGXm5uPp+Zvxx86DmPfPJvBLGrxiKkXh8jNbYe/hDNzdoT6ubttIbyEKLQxMCmrj/9iKTVmV8NM/m7F04w5dSsFA6o9nt2qCFnVroDqy8EzPVkisXMm1kSgEMTAp6OXkF2Ds8u3Ylx+N39Zvxy//btZbyA4SlL3aNUO7xnXw25pNeKHnyejZrI5rI1EIY2CSY6SkZeHdFTuxOT0f/6bsw+LkHWqsTqoYlaIi1aUiTWolYem6LbinUxNcd2pjvZUo9DEwyXH2ZWTjo792YH16AQ5l5uCnfzZhf3qm3kr+1rB6FfQ85UR1Pyc9FbeecQIuaF5XrROFEwYmOVZ+QSFmrNuNeTszsDszF7sPZ2D+mi1q7FIqn3aN66per1XjYpCWeQSnJEVhcMeTUL9KrH4EUfhhYFJIyMjJw1tLNmFbZiH25xSgwAhTmVZqTcp+Ntv6ICoyUp2TbNWgFqrEVkbyrv1oXzsWV7VpgK4n1AKvECFiYFIIyjPC8oc1Kfg9JR17s4EjRo0zIzsXOw6k4k8jRPmVl4CMQPum9dGkVjVER0XKLM7Iz87CabXj0K1JLZx3Um39SCIyMTAp5K3Zm4Zft+zHlrQ87MspVOdAZdqpjXsOYufBNGwybkN5J5ChBpvVqY4TaiWhae1qOJie5aox5majWdVo9GhWBz2MgIytFOV6AhF5xMCksLMj9QgWbzuAlXszsPtIPnIiKuFgZrbqBZqXX4DtRk10b2oGtu4/rM6TOoV8/qZGjbFW1Xg0qZmkxnSVsMw0atcFeTmoauRhh/pVcLZRgzy9fjU2sxKVEgOTyCDNuEu3H1AjCyUfykFGXiFyI6KQnpuPSHXlIVBg7Coyvu2hzCykHsnGYSNk07KykZGdgyM5eeoxgSAzf8h5RRmnVTrhJMXHoFp8rApI87Ply2fLzUNsZCFqxUahTmwkWtepiha1EtG+fnWGI5EfMDCJvMg1apzbDh/B9sOZ2HIoE7vSsnAgOx8HsvKRZ4SVLPmFEYiMikK2Ea4FKDwWsMXctyrx8cb/KhlLXl4eooyyeGPFyEJUrxyJk2omolZ8ZTRKikezmgmoGsP5RIkCiYFJ5CeyJ+1Kz1I9dmVJy85ToxRlG8sRI0xlV9u6YR2+fPsNNGzaHP93z0NqgPLoyAg1Hmt8dJRxG4mEypVQLTZa3SYZt0QUHBiYRBVo3rx56NmzJ8455xz8+uuvupSInIATSBMREfmAgUlEROQDBiYREZEPGJhEREQ+YGASERH5gIFJRETkAwYmERGRDxiYREREPmBgEhER+YCBSURE5AMGJhERkQ8YmERERD5gYBIREfmAgUlEROQDBiYREZEPGJhEREQ+YGASERH5gIFJRETkAwYmERGRDxiYREREPmBgEhER+YCBSURE5AMGJhERkQ8YmERERD5gYBIREfmAgUlEROQDBiYREZEPGJhEREQ+YGASERH5gIFJZINly5bpe0TkFAxMIhvk5eXpe0TkFBGFBn2fiAIsNTUVSUlJiI6ORk5Oji4lIidgDZOoAklQEpEzMTCJiIh8wMAkIiLyAQOTiIjIBwxMIiIiHzAwiYiIfMDAJCIi8gEDk4iIyAcMTCIiIh8wMImIiHzAwCTywW+//YaIiAi9RkThiIFJYeH+++9Hnz599BoRUekxMCmojR8/Hi1atFC1O1nkvpSV1ujRozF9+nR1n7VFIioLBiYFLQm2IUOGYNiwYZBJdWSZMGECpkyZorYREVUkBiYFrcmTJ6N3794YPHiwLgG6du2qaoojRowo0sQq96X2aXJvgrWud+vWTd2atVbZJiSEzdqs3HoKZandms8r7jFEFJoYmBS0+vXrhxkzZqigk2CyhtMVV1yB9evX6zWoxyUnJ+s1YNq0aeoxnixcuFDdmrVWaa6V15YgNWuzUpOVwHYntVvzeX379sWgQYP0FiIKdQxMClpSmxw3bpwKRgkzWaRmJ7W8tm3bqoCUoJN1qYnKIvelTLbJY3zlXpuV95YgdTd8+HB9zxXo1pAmotDGwKSgJgEmgWnW6oYOHarOa0qgNW/eHKtWrcLq1atVbVIWuS9lsk0e42+BeE0icgYGJjmKWeuTWqQ0iUoTqTS/Sm1SFrkvZdbzmURE/sDApKAlzatmhxyTuS41vTZt2qhzl+a6WfuTsuLOXwrzcdZzoub5UnlPIdvc35uIwhsDk4KWeT7R7JUqi9QgzU475nZrbdK8b+1Z64k07ZrnRCUYJUTldUeOHKnKpDOPhCgRkSmiUE4MEVGFOHLkCOLj4xEdHY2cnBxdSkROwBomERGRDxiYREREPmBgEhER+YCBSURE5AMGJhERkQ8YmERERD5gYBIREfmAgUlUgSIjI3HKKaeoUYqIyFk4cAEREZEPWMMkojLL4+E2hRHWMMnx9uQAE7YBh/N0AVWIIxkZaBKTh3tPSUKELiMKZQxMcrRtR4Axm4HXNwL8Imsr5gAzxgEX3gJ0uMjYy/3fkNQkpgADkg5i09rV+OyGc3QpUWhjkyw51sZMYKQRlK8xLI/JygDeHIynzm+Dhb2ScNtPj6LqVyOAXcY/kp80i8vHdYn78Mp/30JBQYEuJQp9rGGSI60zckFqleO26gKnWPkzkJmqVwLgt2/Q4eBKLFq0SM2IIjIyMvD1N9/gw5//xC81z0Bhl6uAynFqW2m1istD35i9eOOd8UZYAv0uOg9fDDxXbyUKbQxMcpx/0oFRG4CPtuuC8pIA22W84EntdUGAfDEC0Z8/hwceeEBdXhIoAwcOROvWrfVaURs3bsSESV9gwoYMbDntCqDFmXpLydrF5+H8qF0YPe59XcLApPDCwCRH+cvItleNbJu0UxeURV4usHoBsGyGsUxH5QYn4YLXv8KC1MqB6zj02bNInDoKP/zwA8491/6AkabUub8uwIer9+Hbk67CkXy9oRhnJOSiS8EOjH1/gi5xYWBSOOE5THKM5YeB55PLGJYHjCf9aNSMXrwaGFALzT8YjPsaZWPG5xNwcMF3aFolgGE58SlU+e41TJ8+PSjCUkgN9/Su3dHrsqtwVpIuLEbnKjk4K2fzcWFJFG5YwyRHWHwIGLEe+GGPLihJvpF+axcBS6cbSTsDsSlrcW737ujduzf69OmDFi1aqIcVGN/+O1YB7wbqXKixe8VkHsRXZyfirBqVdKEfZaYhNgpISioh9Qz5xt8q/44zjH/D6XuBP40DkJJ2/nOqZKNl2ka8P2myLimKNUwKJwxMCnoLDhg1SyMsf9ynC4pzaLcRjjNdTa1//oimtZJUOEpI9uzZE/Hx8fqBLvnGV//WOVsxYY3xBv5WvzkQV0WvBIDstm/dhdrLvsacOXNw6qmn6g1F7c0BZhnhON0ISfn322+s++r8pGw02rcWE778Vpccj4FJ4YSBSUHt5/3AM0ZY/mLcHqewAFi35Ni5yK2rcM7Z3Y7WIovr+GL68ccf8fXXX+s1Pzq5MwrOH4QPdkSqGqzfyd/9vztR548p+Omnn9C2bVu9wVVjlqbrGToklxr3y/IZelfLRrWdq/DZlB90iWcMTAonDEwKWnOMGtGT64BFB3WB1d6twH3t0Sgp/mhAnn/++ahSJYC1Oh/lGntU/z+Ar3fpAn+SsHzrbtQ7shs/fToebRrUwsFcV+1RAlJqk7uz9WPL6LIaWYje+Ce+nv6jLikeA5PCCQOTgtJM44d/+FpXbak4rWOy8FPHQtSvWrZrCgMhx8iz/zPCcspuXeBvqftQv0YS3jg1Wg3cICEpBxT+GtP1mppZyFmzBN/NnqdLvGNgUjhhYFLQ+cEIm8eMsFyVpgu8kDFMz6kB3FwrDdc0jkFibGXXBhtIWF5rhOV3gQpLLdr4o6UW628DamfhwJ8LMPPXhbqkZAxMCicMTAoa8kWcugv4zxrXSD6lVaWSEVh1C3BzjcPo1rgaIiKKDgn+zDrgpQ16JQDkXGFAZu+Q5uf/3o6kKok43H0g0PESIDJKbyw/+VcaWCcLWxfPw7zfl7gKfcTApHDCwKSgIF/Cb1KAYUZYbsp0lZVHiwTgprrZGFgvF42qJ+LPVKDTggDUzNYvBTK8tBuX154twLj7cP01V2LMmDHYtm0b3v7kc0xKq4F0Cc/q9fQDy0bC8tZ6Wfj3l1lYuHyFq7AUGJgUThiYZLsCY/nSCMuHVwPbs1xl/iKBcFFtYOsRYHW6q8xvvhuDSh8Ow4MPPICoKP/V+Nx169YNffv21Wsuqamp+OTTSXhnUTJWtTZqnG2N0HKrUZck0nj4ECMsl87+Acv+/keXlg4Dk8IJA5NsJRfTf2GE5UNGWO4qZ+9OJdd4kb/nAVVqAC076sIA+PY1xE16Et999x169eqlC+2xYMECvP3FVHxd2BTZ3a8HEqrpLcWLMsLyrvpZ+PWHb/DXmvW6tPQYmBROODQe2UbC8tMdwFCjclPmsMwxqqQSkBOfAoadjUr9q+Psw3/jsd5noXag+v989XLQhKU4++yz8embI7FtxI14ueZWnBTn/RhYOg3d2+AI5nz7ebnCkijcsIZJtpDOMZ8YYfmgEZaHSjOGqwycnrzMCMm5wIq5iFy3GKe1bqlG8pHrMM85rycqx8Tgmj+A7wPUWzU64wA+75qIc2u7ps/yq5wjqIz8Ul9PmpEP/HoAmLsP+HGv8c9TTA/jGOMQ+Z76RzD1i0+RvNX4D1BOrGFSOGFgUoXLLXBNzfXQv0BaSWEpF+pvXOGqRf5lhOQ/89GycX0VjhKSPXr0QM2aNfWDK+7SjoBYPhORz1+G76dOUQMxeCN/56JDwE9GQM7dDyw+WHKHprgoIyzrZeLzTz7Ctl1GqvoBA5PCCQOTKlS28UP/wTZgmBGWUis6jnwdtxkbpQYpAbnqFzWaj1mDlNtGjRrpBxeVk1+Afh//iqn/+GuiTDfdrwOiAjCAukjZYFS3O+LFxx7GY489pguPkeZr6ekrNcifjICU8XUzS5iSyypBh+XHH76PlH3+GzuXgUnhhIFJFeaIEZbvbwUeWWPc9/Rjv3U18HAX1IyLVjVHMyRbtmypH+DdkiVLMHeuEbL+Jr1PO1yIw43b4+VAXMeZlWEcQXTDNRf3wuT/jVTXj8pO+W+6KyClBilj6soQeGUh16feUzcd7733HvYe9O8lMAxMCicMTKoQGXnAeKNm+ZgRllLLLM4dNQ/hjTMSERsdoJpcGe3IAnouKtuACiXasxntTqiPzzrGQKbfkoCUoEzxQ6/hatHAnXXS8PY743Eozd/X1TAwKbwwMCng5DzlO1uAJ9a5zl+WJMnIyhvr5+POehloU6eqLrVPQMNSaxAL7PTzNag1owtxR+00/PetcUjL9MNoEB4wMCmcMDApoKQH7NubXbOOyHm40pDL8LvXAO6qk4ormyQgulLRwQEkfPd4q66WWwRS8yNwyVKogc6dpE7lQtxWMxWj//cWMrNKMQlmKZzVtpXx36QSFg67WpcQhTYGJgWMTFb8P6Nm+dz60oelu3oxwG0NcjG4fjYaV09ElpGTVy5zzWpCRTWMKcDAaofxmhGWOTmluWbHd11PPwWVo6Mx7/7LdQlR6GNgUkDsMcJyrFGzHGGEpT+/YDKc26V1gPR81yUVVNQJRlgOSDqIUWPfQl5eYGrf3c84DQUFBZj/8FW6hCg8MDDJ7+Sc35tGWL66wb9hSd6dFJuPaxMPYOTYd1SgBcL5nTogPfMIFj3aT5cQhQ8GJvmVfJk+2FKA7aW5SJD8Ij/tIJ4f87Ze87+Lu3XEnoOHsPyJ/rqEKLwwMMnvXl6Vhsfmb9VrVFH6JezD5Fk/6zX/uuTcLtiasht/PX2jLiEKPxx8nYi8uvL8c7Bh206GJYU9BiYReSQDHMl1lqvWb8Tq52/SpUThi4FJRMeR4fmuu7gnlq5ag3Uv3aZLicIbA5OIioiKjMT1fc7Hgj9XYuOrQ3QpETEwieioqCgjLC/phZ8W/4Gtr92lS4lIMDCJSJFh7m685ELMWLAEO8fcq0uJyMTAJCLEREcbYXkBvvt5Ifa8OVSXEpEVA5MozMXFVMYNRlh+/dOv2P/Wg7qUiNwxMInCWEJcLAb06YW3rjoLh955WJcSkScMTKIwVSUhXl068vbVZ6EyfwmISsTdhCgMVa+aiGsvPBfvGGEZLROPElGJGJhEYaZmtaq4suc5GH91R1RiWBL5jIFJFEbq1qyOS8/tgnev6YgohiVRqTAwicJEg9o1cVHXs/B+v85qIm4iKh0GJlEYOKF+HfTo2B4fXdeFOz1RGXHfIQpxJzWqj66nnYJPBnQDK5ZEZcfAJAphJzdtjA6tW+KzG7szLInKiYFJFKJOadYUrU48AV/edJ4uIaLyYGAShaDTT26OJg3qYcptvXQJEZUXA5MoxJx5ysmoU6Mapt1xkS4hIn9gYBKFkC6nnaKGvJt1T19dQkT+ElFo0PeJ/OK11RkYu2KXXqOK0q9OHhb9vRq/PHilLiEif2Jgkl/de++9+PiTiXj85ddx5fWDdKlzPPPA3Zj29Rd44pU3cEX/G3Vp8Hvx0QfxyQfvYtybY3DbbbfpUiLyKwlMIn+55ZZb5ACscNy4cbrEWQYOHKg+//vvv69LnGHIkCHqc48dO1aXEJG/8RwmkUVubq66rVSpkrolIjIxMIks8vLy1G10dLS6JSIyMTCJLMzAZA2TiNwxMIksGJhEVBwGJpEFA5OIisPAJLJgYBJRcRiYRBYMTCIqDgOTyMK8rIS9ZInIHQOTyII1TCIqDgOTyIKBSUTFYWASWTAwiag4DEwiCwYmERWHgUlkwcAkouIwMIksOPg6ERWHgUlkYdYweVkJEbljYBJZsEmWiIrDwCSyYGASUXEYmEQWDEwiKg4Dk8iCgUlExWFgElkwMImoOAxMIgsOvk5ExWFgElmwhklExWFgEmkFBQVqEQxMInLHwCTSzNplZGSkWoiIrPirQKSxOZaIvGFgEmkMTCLyhoFJpHHgdSLyhoFJpJk1TF5SQkSeMDCJNDbJEpE3DEwijYFJRN5EFBr0/bCUmZmJ9PR0vUbl9cADD2DSpEkYN24cBg8erEudYcOGDWjevDmaNGmCzZs361JnuOOOO9S/+dixY3H33XfrUiLyp7APzFGjRmHYsGF6jfzFiYG5du1atGrVCs2aNUNycrIudQYzMOPi4hATE6NLyU7PPfcc7r33Xr1GoYCBqQMzNjYW8fHxupTK6/XXX8egQYP0mjP8888/aNu2LU4++WSsWbNGlzqDGZgUPEaOHImHH35Yr1EoYGDqwLz//vvxxhtv6FIKRytWrED79u1VaK5cuVKXOoOcVsjKytJrZKcnn3wS77zzDgMzBDEwGZikLVu2DGeddRZOP/10/Pnnn7qUqHTkPP7o0aMZmCGIvWSJNPaSJSJvGJhEGgOTiLxhYBJpDEwi8oaBSaQxMInIGwYmkcbB14nIGwYmkWbWMDn4OhF5wsAk0tgkS0TeMDCJNAYmEXnDwCTSGJhE5A0Dk0hjYBKRNwxMIo2BSUTeMDCJNPOyEvaSJSJPGJhEGmuYROQNA5NIY2ASkTcMTCKNgUlE3jAwiTQGJhF5w8Ak0hiYROQNA5NI4+DrROQNA5NIM2uYvKyEiDxhYBJpbJIlIm8YmEQaA5OIvGFgEmkMTCLyhoFJpDEwicgbBiaRxsAkIm8YmEQaB18nIm8YmEQaa5hE5A0Dk0hjYBKRNwxMIo2BSUTeMDCJNAYmEXkTUWjQ98PSqFGjMGzYMNx///144403dCn5m3zNRo16TN1S2W3evAn33PME2rQ5TZdQsHnggQcwevRojBw5Eg8//LAupVAQ8MD87rsPkZycrNeoLKT3ZmxsDIYOfV6XOEt+fj5eeeURtG3bFvXq1dOlVFqTJ3+Offv24Nln/4cmTU7SpVRet9xyjbGP5ei18lu27B+sWbMRHTq0MQ5smunS8ikoKEBaWobxezpPl5AdAhqYX3zxFrZv344uXbroEiqtLVu2YPr079GnzzXo3/92XeocOTnZePnlR9CxY0fUqFFDl1JpffLJBERF5SEyMto4cHqBgekn/fv3wRlndDCW9rqk/LKyso3vfQ5iYmKMpbIuLZ8nn3wWiYmJmDnzN11CdghYYH788RtITU1VP5RUNqtXr8avv85FzZqJOOus3ujX7ya9xRkyMtIwcuTj6N69u9rZqfSkZvHBB+8b/36VEBcXjSNHChiYfiD/rgMGXGL8Pp2Js88O7gP6J5541jjYjDcOmBIxadJ3upTsEJBOP+PHv6SOsBiWZbdkyRIsWDAP9etXQ0REhC51jrlzv1Rh2bNnT4ZlGck+9O6741C1arQKS/IPCcv+/fs6IizHjh2HSpUK0bx5fV1CdvJ7YL755jOIj4/HqaeeqkuotObNm4uVK/9A3bpJusRZZs2ahPnz5+OCCy5AbGysLqXSyMzMxPvvj0fNmvGIiWGvXX8xw7Jz505BH5Y//fQztm7djA4dmusSspvfAlNadqUXpHTqaNmypS6l0po27QdjJ0lGrVrOrJV9//1HWLZsGS666CIOMVdGBw8exEcfvY86daoY/4ZRupTKywzLbt06G0snXRqctm/fienTZ6BTp1a6hIKBXwJTekG++OJDKiibNGmiS6m0vvrqSxw4sAvVqsXrEmf56qtxWLNmjapZRkbyEt+ySElJwWefTTQOPJNQqRLD0l8kLK+7ro+qVXbuHNyniuSzvv76GLRv34zfgSBT7k4/Zi/ITp06oXr16rqUSmvixI8REZGLxMQYXXJMbm4+zjzz4qDu9DNhwsvYs2efXqOykHOW69evR/361Y0DDs/nrdnpp/RcYdkb55xztvE7daYuDV6PPPIEmjatjYYNa+kSl02b0tjpx2blCsw9e1Lw1FP3oVWrVjxXVQ6LFv2OGjXiEBfnuQu6EwLz2WfvQrt2p+g1Kgtphtu4cQ0SEorflxiYpSOjN111VS80btzYWBrq0uD122+/GwfO+Wjb9viWus2b0/Hpp1P1GtmhXIE5fvxzOHDgoPFjz5plWcnR79KlS1CvXvH/hk4JTCccvQezrVu3Y/XqvxiYfrRly2Z89NF/9VrwW7hwIc46y3MnH9Yw7VfuwKxcOdr4sa+rS6i05Pzv1KnfoXbtqrrkeAzM8MDA9D8ZJWvgwMsxaNCluiS4vfTSOJx9tueWGgam/dgzg4iIyAcMTCIiIh+wSdZmbJIlE5tk/U+aZK+9thfq16+pS4LbunWb0blza71WFJtk7cfAtBkDk0wMTP+TwLzxxsswYEBvXRLcXnvtA57DDGJskqWAk+sLU1PTuOglPT1D/8tQRZCxmOXA3gkLBTfWMG0WDjXM3NxEREZGITY2TpeEt7//Xo7WrY+/JpA1TP9jL1nyp4AF5r59+5GSko769RvpkvC2YcNatG/f3Pj3Kjo4QbgE5rnnXoSqVZ05mLy/TZz4LmrVOn7IMwam/zEwyZ8CFph79+5Hixad0Llzd10S3qZM+cyoZR1mYBIDswIxMMmfeA6TiIjIBwxMIiIiHzAwiYiIfMDAJCIi8gEDk4iIyAcMTCIKCzI35urVybYtKSl79Cchp2JgElFYyM7OQWbmETRuXN+WpXp1XlbldAxMIgobsbExqFIlwZZF3pucjYFJRGFj8+btWLr07yLL8uUr9VYi7xiYRBQWEhLi0adPD5xxRrsiS4cObfUjiLxjYBJRWJPBQQsKCgO+lGMUUgoSDEwiCgsZGZmYPn2eaoK1Y9myZYf+JORUDEwiChtNmzbCWWedassi703OxsAkorCRlZWNtLSMIgsn9CZfMTCJKCzExFRGfHwctm1LKbJs375LP4LIOwYmEYWFSpUqoU2b5sctrVo1048g8o6BSURhQUb6mT9/CRYvXmHLsmnTNv1JyKkYmEQUFmQs2erVq6FTp9NtWU48sbH+JORUDEwiIiIfMDCJKCxERUVhz559xzWVyvB4RL5gYBJRWJDBz3v27HpcU6lcI0nkCwYmEYWF/Px8bN2607blwIFD+pOQUzEwiSgsyKAFct1l5crRtizSJEzOxsAkorCRlFQF9erVtmWR9yZnY2ASUdhISdmD1auTiyxr1mzQW4m8Y2ASUViQYfE6d26Pxo3rF1kaNaqnH0HkHQOTiMJCREQEqlRJOG5JTEzQjyDyjoFJRGEhM/MIZsz4+bjrMCtq4dB4zsfAJKKwUFhYiMaNGxx3HWZFLRwaz/kYmEQURgpVcLovRL5gYBJRWIiOjkZmZpYaCs+6LF++Sj+CyDsGJhGFBRk8oGPH045bzjyznX4EkXcMTCIKCzk5ufj99z89dsipiIWdfpyPgUlEYSE3N1ddRuKpQ05FLOz043wMTCIiIh8wMIkoLERGRmLHjl3HNZVyPkzyFQOTiMJCXFwsLrqo+3FNpZwPk3zFwCSisFBQUKjmpLRrycjI1J+EnIqBSURh4ciRI1ix4l8jvA7bsmRkHNGfhJyKgUlEYaNOnZpo3ryJLYu8NzkbA5OIwoY0jW7durPIsm1bit5K5B0Dk4jCQmxsLFq2PFGN+GNdoqMr6UcQecfAJKKwEBUViXr1antciHzBwCRykIICID6eEx6XxZEjWZgzZ8Fx12FW1MKh8ZyPgekA+fn5iI6urNcoXOXkROCSSwagdu26uoRKo8A42qhXr85x12FW1MKh8ZyPgRnkcnPzkZTU2PihvFaXUDhKT89Hq1adUK1aXaxfvw7bt2/FoUMH9VYiqggRheWYPXX8+OfUSfN69Y4/4t27dz9atOiEzp2765LwNmXKZ4iMPGz8exWtKUrtcerU74xaQ1VdcoyEZWJiAzz22CtqLj+RnZ2FmJhYdT+YPPvsXcZR9Jl6raj8/GrYs2en8TfE6JLwlpKyDe3aNdVrx2zduh2rV/+FhISi/323bNmNBQtWqVvxzDND8ffff2Ds2EmoX7+RKiPPZMD1gQMvx6BBlxo19Bw1DF6lSkU7+ciQecEy2s9LL43D2WefoteK2rQpDZMmfafXyA4BDcysrMpo2bK1LglvS5f+Zvxb1PM5MLOzc7FkyRosXLhKjVAirrmmBzp27Ihhw15W68HEW2CSbzwFpntYvvfeq8b6PKOmmYSnn/6fcVtDlZNn1sB0AgZmcAtYYEoQpKWl6zUSSUlVERERoddcPAWmp7C8446rjf/PwbXXDkHPnn1VWTBhYJafe2Bu3ixhudIo36PWx459HsuX/2bsb9WM2lIkhg//LwOzBNbAzM3NM/591+stFa9GjWpo3Li+XvOMgRncAhaY5Bv3wPQUlrfddjmqVpWaaSH69r2JgRmirIHpHpajRj2Of//9C3XrJqn17OwIBqYPrIEpY7muX78ZrVs311srljT9lnTNJwMzuLHTTxCRsFy8uGhY3nzzJcaPYgxiY13nMCn0bd68C/PnHwvLF154CGvXrjwallR2cv4yJqayLQsHSHA+BmaQyM7OMcLy3yJhedNNfVCrVoJRi+eOFi4OHkzHr7+uxLZtrrAcPvxO434yateuotapPCKMg5HtRa6NlIXzYZKv2CRrM2mSnTz5K2zalKI6d5j/OQYN6m3UKKoaR8RRal1kZeUEdZNss2Yn6jUqiz179hnfg80YO3ayWh827BZkZBxAtWrxat2KTbK+Yacf8icGps0kMD///Bt88cUc1SlBDBx4MerXr6aG8rIK5sCcNOk1o3Z0SK9RWUkv6sGDn8J99w1AQcERVK0ap7cUxcD0jTUw5acuJydXb6l4UVFRRQ6APWFgBrdyBeYXX4zGmjXr9BqVx3PPvaOaYgcNkrCsjsjIor1pRTAHppDr3F544UHjb/mfLqGyuOuu/0N0dB4SEoq/bpWB6Rv3Tj+//rrE2L/q6K0Vq2bN6uwl63DlCkzTxx+/YXwhH9RrVFY33dRb1SzdLz0xBXNgHjmSiVde+Q/OOeccVKnC821l9dFHHyA2FoiL8z4UIgPTN+6BuWnTdrRt21JvDT4MzOBW7sB8771XVFPHaaedpkuotP76awUWLVqAunUlLHWhB8EcmM89d/fR869UNrt27UZUVAGSko4/Z+mOgekb98BctWodWrRwH2UpAjVqBEcPZAZmcCtXYH700ctYty5ZdZmmspEBoTds2IgmTUqeYijYO/3wOszyWbbsT+zbt/O4ofE8YWD6xhqYeXn5RugcP2OInP5o1qyJXrMXAzO4sdOPzeS83/ff/4A6dUo+wmVghjYGpv9ZA9MJGJjBjYFpMwYmmRiY/mcNzKysbCxatAJxcfZMAlCnTs0Sp/hiYAY3BqbNGJhkKk1gZmbKv/lbqFqVo/94w04/5E8c6cdBXMc2XnoFUVgwjrGMH9WLGZZEFYyB6RDSYSE+vg46dz5Xl1A4krDs3Lk3rr76Rl1CvpKBA/btO8Ch8ajMGJgOIGEZHV0Tjz8+0gjNBF1K4UbCsksXCcsbdAmVRmxsDM47rzM6dTq9yBIsk0dT8OM5TJuVdA7TDMsnnhiJuLiSr8+zC89hlp+3c5gSll279saVVzIsS8N6DlOGoZRzmHZJSkpE7do19ZpnPIcZ3FjDDGJOCUsKrOxsCcs+DMtykl6y+/cfRPXqSbYscXGexwUm52BgBikJy8qVGZbhztXBp68RltfrEiqPhIR41KxZzZYlMZH7sdMxMIOQKyxr4fHHRzEsw5hZs7ziigG6hMpr27YU/PXXv0WWv/9eo7cSecdzmDZzP4d5rBlWwjJ4m3Cys7PwwgsPGUfNibqE/G3p0iX44IPvOJh9OVjPYcpPnUzU7k4mOwiW4T15DjO4lTowx417EYcPH9Zr5G/btm3D5Zdfj169gm9wApN8ZWQar27duiEhgb12A+Hzzydh3759KjArVYrWpVRaoTI0nhxIL168DrNnLzYOqPl9sEupAnPSpDdx5MgRtGvXTpeQP23atAlTpnyNRx55Ce3bd9SlwefNN59B48aN0aBBA11C/vTLL79gy5Z1iI1NwMsvf8DALIeiI/0cwc8//45atewZTrA8Q+MtXrxWzbKye/dhvPjiGLRq1UZvoYrkc2DOnPkpVq5ciXPP5YXzgZCeno6PP/4QVavG4uabHw3awORBU2DJQdPs2dNRt24SsrMjGZjlFApD46WlZSI5OQX33TdI/Q2ffz4LvXtfiVtuuVM/giqKT51+ZHLgxYsXq8mBKTAmTvzY+JGs6nU+TLvJQdOOHTsYlgEiB00zZsj57Kq6hPwtLy9P9RtwX4LZ6tXb0KNHF3VfevneeuuVmDz5YzU1IFWsEgNTKqAjRz6mapaRkexUGwiffjoR1avHGTWJKF0SfOSgadGiRTxoCqBjB00cLzgQKld2dexZvTq5yLJmzUZVHoz27UtVHSvbtTtWK96wYRtatz6Vv8c2KPFffMyYp3D66acjPp6XNwTC3Lk/GUeKRxAbG7zNbnLQNGrU4zjvvPO4kwbIpEmfFjlokk4ecXHVEBVVSa1T+UVHVzJ+y9oct5x6aiv9iOCzcWMKLrmkh15zmT//Tzz55It6jSqS13OYn3wyWjVhnHKK527OVD7JycmYN2826tQ5dtnAgQNZePbZ/xll9XSJ/eSg6cQTT0S9esHzmULJvHlzsW3bBiQluS4jkrCMja2jLi0ya0VUNtZzmNL0unTpSttackrb6Wfnzn1GDTMdd999bISnXbv24fff12LcuIm6hCpSsYE5ffon+Pfff9kEFyCpqamYOHECGjSodrQJTjp53HjjUJx2WvCMyTpx4hj1o8ODpsDYsGED5s6ddfS8pYx3WqlSTQwfPsoITQ6lVl5O7vSzZMlaDBhwGerXr63WxSef/IARI940gvckXUIVyWP7WkZGunEkttT4D3e2LiF/kpP1n376SZHzVVlZEejXb0hQhaUcNO3evZthGSDSyWfWrOmoXdvVwpCfX2B8H5Lw+OOvMizD3KZNu1QHH2tYpqamGwdTsQxLGx0XmIWFBXjttSfQo0cPdj4IkEmTJqJmzfijTUPZ2RG48sqb0bFj8Byg8KAp8KydfAoKCo19L5FTuAWQnH9PSdlzdB7MYJ4Pc+/eVFx3XdHBS6ZPX4D7739Mr5EdjgvMN954Eh06dDCOcI+fYojKb/bsH40fxmzExLg6+ch4ob179zeC6Xy1HgzMgybp5MODpsCQsDQ7+chZkby8WDz66MuoUoWXlARKXFwsLrjg7KCfD3Pt2u2oWjUR1aod+y7I+dfc3EK0b88p9OxUJDAnTHgdtWrVQp06dXQJ+dO6dWuxZcsGY2dwNbdJWPbseSXOPz+4hsEbPfopddDE6YgCY86c2UZI5qie0RKWOTmV1ehO1at7nyuRwkNqaiYGDCg6lN+0afNx00136TWyy9HA/OGHCThw4ABatQreLtZOJuPvzpnzo3FA4jpflZ1diG7deqNPn2vUerCQg6YaNWrwoClA1q1bh82b16sRnaS7XXZ2NB566HnUrs0JDMjVQ7pGjWpISDh2sCp9Hg4dyjRqxxfrErKL6iWblpaqmmIvuugiNsEFgHzhx417G3XrVkFUVKQKyzPO6In+/W/TjwgOctAkP+g8bxkYx3pGVzf2MxkMIgr33/8MTjiBnTgCZc6cmXj11afUfucEMpvKkCH9kZR0bBagGTMWonPnC43fi4G6hOwSkZ+fX/j88/ejZ8+eiImJ0cXkTx9//BFiYwvVecvs7AK0bdsNN910j94aHNLT0/D668N50BQgxw6aEo0f7ygjLCNx552Po0WL1voR5G9ffTUJX3/9CQYNukyXBL8dO3bjs89+wH333Xj0Gtz335+CL7+cpe6TvSJGjny0sE2bNurcJfnfzJkzsW/fdlSpEmuEZb7xA3mmcQT5sN4aPKZOfQcrVgRfb8FQkZaWjlatWmLTpn+NsIzArbc+jFNOOV1vJX/78stP8c03n6rrL51m4cI/sHz5Pyo058//A/Xrt8I99zykt5KdIl58cWhhsA8+7GQyX+TBgzuRk5OPxo3bGjvBcL0luMyc+YG+R4GwY0eK6n28evVa3HDDPejQobPeQv72+eef4LvvPsPAgc4LS9Pnn083fjNykZtbgC++mMkhKYNExIwZ7/s8HyaV3pIly43axX7Uq9cSDz74bNA2dzIwA8sMzLZtz0HnzufpUvK3FSv+wLBhQ1C7tvM7rW3Zsg0XX3wpnnzyBV1CdmNgBpgEZuXKVfCf/7xohGXwHiUyMAMrM/OI8f+FuOqq4Dp3TUS+Y2AG2Nat23HbbcPZpEJE5HBeZyshIiIiF1Z7iIiIfMDAJCIi8gEDk4iIyAcMTCIiIh8wMImIiHzAwCQiIvIBA5OIiMgHDEwiIiIfMDCJiIh8wMAkIiLyAQOTiIjIBwzMIDB+/PhyTft1//33o0+fPnqNiIgCwTGByVAgIiI7VUhg+iPsRo8ejenTp+u14PPbb78F7eTQRERUfmySJSLbyWmJFi1aqINOWeS+lBEFE1sC06yNWXcOKTOZ26Vmaj7GvZZqPsY8/yeL++u4b5PXkFvh62fw9vqlUZrXMf9u8wejpM/qTh5T1s9JVNHkuzpkyBAMGzYMMj2vLBMmTMCUKVP4PaagYktgdu3a9eiOIYvsKN26ddNbj1m3bt3RxxRHdirzMX379sWgQYNUubkTjhs3Tm2THXDMmDFqm/D1MxT3+qXh/lnkdTy9l5CDAvmcCxcuxODBg1WZr5+VyIkmT56M3r17H/2+C/nOyykYuRWyD8mBonnQ6Ong2XqALeTxUmblftBc2teUW9lG4SkommRlR2nevPnRGpVp+PDh+l7xrI/p168fkpOT1X33nVB2vKFDh6r7nvjyGayvXxrun0XOxwr395Kdd/369SoszR8KT4r7rCYJVW/PJwomsl/NmDFDBZaEkadAkgNEaw1UWANOuB9gy+OnTZum7ptkXcpFWV6TwpttgSlfTPPITRYJotWrV+utLr786JcmGNq0aaPvufjrM5SFBJ47eX/ZgT29py+flciJ5PsurS9ysCghJot8x80DQqnluddA5UBWQtbK/QBbHi/7ifk6EsSyLuVlfU0JzkD9JlDwsyUw5csqO4d55CaLpwDxN2vA2PUZTLLjupMfDWm6da852v1ZiQJNgsv6HZfWINkXTBJk1gNGT6ckPAWZhKKcVhEjRoxQ66ayviaFr6BokpWA8BQg5WE281iPLq3nMN0F4jOY3D+LBKCwHt0KWTdD03yMJyV9Vtn5eZ6FnMw8bWF+jyXorAeM5lISa61Rbq+44gp1X5T1NSl82RKY5s5gHtnJEaC/a0xmM4+Ej7yHdNaxnsMM1GcwX89cpCnV/bPIeRQ5T+mJhKZsk3A3Q7Mi/r2I7CIHgO4HiOa67Dvy/bcecAoJUvfzjZ7I82Vfkf4BcmsepJb1NWX/48FoGDOOqALOCKpC42hOr9knWD4HERUl+6b8HJmLEW6FxoGj3lqo7kuZp+1yK2XFMV9bbq3K8ppSZj6Gwk+E/J/xJQgoObqTSynMmlJFkaNUaQ6Vo0w5KpRzFFLTc28KJSIiKkmFBKY0c9gxrJ2EpDTFmuf7jCPMCg9tIiIKDRUSmERERE4XFL1kiYiIgl1IB6b0gDOHwfKkpO1EREQm1jCJKCzxgJpKq0ICU3qrWq9vks445jWF5uLLNVVCvsDyeCIioopkaw1T+huZiwyLVVJoStBKj9fmzZsfd6EzETkTD6jJKYKmSVam3zKHsCqOORakp1kIhDShmDuY7Djug5N7227upLLzmo8xy82dUBb3HVfWzW3yOHm8yds2KbOuE1FRPKCmYOOoc5jmWJAy8IDsGBKAJtlZZOg5GZhAdjD3+S9L2m5yn85HBjsobgog2SmtA0bLa0qol7SNiEqHB9QUFIwf84BzH5LO07BTMiyVt2HrjKBTjzHJY62Pd38PIWXmc0rabn4m67BXnp5j/eyyXe7LrftwWd62EdEx7vuZdR8zeSpzJ9vld8L9vjCfb5aZ6+77f0nb3X8PrM8Rst18jPxd1t8seQ1ftgl5XSmj4GJrDdM8ujKPsLyNBjRy5EhVqzQfL0ebJR1xus9/6c7TdhlGz0rew/o5rVMAyahBxhdfHc1KuWw3jwq9bSOi0pERu4xA0WvHk9qhEUBHh72Ux5rTeomSJpT3dcJ56/yYUtu0Pke4z6kpv1nyONn35TWtv3Hethm/zcf9FpH9gqbTj7ewlC+UfLmsj5dFdhD5whXHvcnFXUnbhewQ7u8ri0mC0Wx6lR1MdmyTt21E5J31QJUH1BQMHHEO033iV5P1XEVJ81+Wdn5MIV9q63OEPM96DtO6Tc5/yo4tvG0T3EGIvLMeoPKAmoKC8R8r4IwvQ5H2efN8gK/ksdbzBFbWbXIr67LI+QF5X+t5Am/bi/tMUi6PsT7PPLcgt/J3lXabkDLrOlG4Ku/vgzzX+nyT7O/u+7f5W2Gul3a7O+tzhDzO/Czyd1m3WT+nt21CXldei4JLhQQmEVFxyhuY7qFlZd0mt7IuiwSh9YBZeNte3GeScnmM9Xlm0Mmt/F2l3SakzLpOwYGzlRAREfnAUddhEhER2YWBSURE5AMGJhERkQ8YmERERD5gYBIREfmgQgNTLiI2R8SQxX3A4ZLIY+V5REREFa3CAlNGx5FReRYuXCgXM6mFM3gQkYkH1BTsKiQwZYg4GWJOhoGyjsXoPuCw+YUvbocxx2k0t5vDXslj5LFmuTl0ndya94Xctw5PJ883t5f03rLuPsyWrFtfT55nfQ4R+Ub2Qx5QU9AzvpgB5z6Sh6/MkTdMMvKFp48sZdaRPuS9ZJEyc6QOIY+zPl+2WZ9n5f7e7uvC/fmynaNzEJWOp33LE3P/NxdPo+NYF/ndEfIYeaxZbv4Wmb8TJrlv/b2w/m6V9N6ybr6fyTpSkJDnWZ9DzlPyt9QP3APT/cvn7UskXzgzlMznWbm/tjAfZ72V15DHySL3rduKY31vIY831+XW/bMQUel52od94b4Pmvu0O+t+K6y/A+6BZn2++/5v5f7e7uvC0++Ht98bCn629JKVpljjvdXiTppmrE2jMgtBSbMGFDfFjryP8aXFqlWr1GtcccUVapH7UibbrE3EJb23sWOraYSEzLVn7HTqPhH5j/vpkeJOc8g8lLIPW2cFcienTWQ/9TRnZdu2bdU+Lq8vryGPk0XuS5lsk8d44v7e5uub63Irz7e+r/zeWX9vyHkqJDDNqbVKIl9uc7obc5EvZUnkS259jrmIvn37qnCT8yPy5ZdF7kuZ+/nMkt5b/g7ZCWRnkL/HOpksEfkHD6gpWFVIYMqXTr487h1pijtyNJlHaSbzy2t9XklzVsoksGZYy/PN15Ay2TmK4/7ewvw7hgwZctzOJGQnKulvIqKieEBNjmH8h68wcq5C3tJcjC/ccecIpMzcbnzR1bo8z2R9DbNczgtYnyf3recKzNcyyX0pc1fSewvzXIX75xZSznMURKVn7m/W/UfuW/cp2RflMSZzX7Tuo572Qff9Vbabvwfma1hf1/wdsD7Hl/cW5m+L9bEmKXf/bOQsFRqYocDcUYjIvyR8ZN8yFwkda2gJM8xk8XRQa30Ns1xCyvo8uW8NLvO1TGbouSvpvYX5++D+uYWUMzCdjfNhlpLZ1Gu9fpSISEhzrJyy4c9qaLKll6wTyY4g5yjlPAbDkog8YWef0MYaJhFROZk1y+bNm6uDagpNDEwiIiIfsEmWiIjIBwxMIiIiH1RIYMrF/NYRMmTxNPuH9XHu5LFmD1Uh5wzkNayvJ2VERESBUKE1TDldai4ydc+6deuKjKZhkhPn7mFqJcEqJ9iHDRtW5PWkhxpH2iFyFh5Qk1PY1iQrw8qZl2e47xgSfmPGjCk2/CZPnqy6blsHNjZfzxyuTnYShieRc/CAmoKd7ecwZSxHGbvRyhyzddCgQbqkKHPsSTmilB2AOwFRaOEBNQUj2wNTBkf3RL7cMpCxpyNJ+dKPGzdOXe8kMw/IIjuAtclFjirNnYOInIkH1BRMbA9Mb1PzSCgWdyQpR4/W2QOGDh2qmmGIKHTwgJqCie2BKUePchTpiYSiHEmOGDFClxRPpvkSPJokCh08oKZgYltgypfc7NVmhp0nciQpzSvWZhk5UnQ/sjTXzaNGnqMgcj4eUFMwqdDAlBAzFzn/0LJlS5/GXZQjSetkzubJfOvryY61cOFCVU5EzsYDagpGFRKY8iU1m0bMRYLSfUcwH+dOAlLKZecwyXPdX896TkLKrOtEFNysB8A8oKZgxMHXiYiIfGB7px8iIiInYGASERH5gIFJRERUIuD/AT1awjXYZlUrAAAAAElFTkSuQmCC;" vertex="1" parent="1">
          <mxGeometry x="70" y="270" width="390" height="545.16" as="geometry" />
        </mxCell>
        <mxCell id="3SbiW-nQ5kWzxvj-RMLt-2" value="gateway: 172.16.18.1" style="text;html=1;strokeColor=none;fillColor=none;align=center;verticalAlign=middle;whiteSpace=wrap;rounded=0;" vertex="1" parent="1">
          <mxGeometry x="260" y="340" width="140" height="30" as="geometry" />
        </mxCell>
        <mxCell id="3SbiW-nQ5kWzxvj-RMLt-3" value="1. Ganti nama mikrotik&lt;br&gt;&lt;div style=&quot;&quot;&gt;&lt;span style=&quot;background-color: initial;&quot;&gt;2. Tambahkan IP Address yang satu jaringan dengan gateway &amp;gt; Ether 1&lt;/span&gt;&lt;/div&gt;&lt;div style=&quot;&quot;&gt;&lt;span style=&quot;background-color: initial;&quot;&gt;3. Ping 172.16.18.1 , 8.8.8.8 , google.com&lt;/span&gt;&lt;/div&gt;&lt;div style=&quot;&quot;&gt;&lt;span style=&quot;background-color: initial;&quot;&gt;4. Aktifkan wireless &amp;gt; ubah mode: ap-bridge &amp;gt; ganti ssid&lt;/span&gt;&lt;/div&gt;&lt;div style=&quot;&quot;&gt;&lt;span style=&quot;background-color: initial;&quot;&gt;5. Tambahkan IP dan DHCP server ke Wlan1&lt;/span&gt;&lt;/div&gt;&lt;div style=&quot;&quot;&gt;&lt;span style=&quot;background-color: initial;&quot;&gt;6. Tambahkan NAT&amp;nbsp; &amp;nbsp;&lt;/span&gt;&lt;/div&gt;" style="text;html=1;strokeColor=none;fillColor=none;align=left;verticalAlign=middle;whiteSpace=wrap;rounded=0;" vertex="1" parent="1">
          <mxGeometry x="450" y="410" width="340" height="130" as="geometry" />
        </mxCell>
        <mxCell id="3SbiW-nQ5kWzxvj-RMLt-4" value="TAMBAHKAN BANDWIDTH WLAN : 512 kb&lt;br&gt;Simple Queues" style="text;html=1;strokeColor=none;fillColor=none;align=left;verticalAlign=middle;whiteSpace=wrap;rounded=0;" vertex="1" parent="1">
          <mxGeometry x="450" y="531" width="340" height="130" as="geometry" />
        </mxCell>
      </root>
    </mxGraphModel>
  </diagram>
</mxfile>
